<svg fill="none" xmlns="http://www.w3.org/2000/svg" x="0px" y="0px" viewBox="0 0 438 432" xml:space="preserve">
<path d="M305.6 85.2034C300.4 89.6034 294 92.8034 286.8 94.2034C280.5 95.4034 274.3 95.1034 268.5 93.6034C266.7 97.9034 264 101.803 260.6 105.103L318.4 94.1034C313.4 92.2034 309 89.1034 305.6 85.2034ZM438 213.403L413.6 84.6034L371.3 92.6034L364.9 58.8034L362.4 59.3034C364.2 73.2034 357 86.4034 345 92.6034L371.9 234.603L271.7 253.603L245.1 113.203C244.9 113.203 244.7 113.303 244.4 113.403C234.5 115.303 224.7 112.503 217.5 106.503L251.2 283.903L402.3 255.203L395.9 221.403L438 213.403ZM376.6 118.003L392.9 114.903L407.7 192.803L391.4 195.903L376.6 118.003ZM66.7 240.103L24.5 232.103L0 360.903L42.3 368.903L35.9 402.703L187 431.403L224.3 235.003L73.2 206.303L66.7 240.103ZM46.6 343.303L30.3 340.203L45.1 262.303L61.4 265.403L46.6 343.303ZM93.7 236.603L193.9 255.603L186.4 295.303C168.1 294.803 148.9 299.903 133 304.103C124.8 306.303 116.2 308.503 112.5 308.503C108.1 308.503 95.4 301.503 83.1 292.703L93.7 236.603ZM112.5 334.403C119.6 334.403 128.4 332.103 139.6 329.103C152.5 325.703 167.8 321.703 181.5 321.203L166.3 401.103L66.1 382.103L77.8 320.503C88.9 327.503 102.3 334.403 112.5 334.403Z" fill="white"/>
<path d="M238.1 126.903C229.1 126.903 220.3 124.203 212.6 119.103C202.5 112.303 195.7 101.903 193.4 90.0034C191.1 78.0034 193.6 65.9034 200.4 55.8034C206.9 46.2034 216.6 39.6034 227.8 37.0034C233.9 18.7034 249.3 4.80337 268.8 1.00337C288.4 -2.79663 307.8 4.40337 320.2 19.1034C320.6 19.0034 321 18.9034 321.3 18.9034C346 14.1034 370 30.3034 374.7 55.0034C379.5 79.7034 363.3 103.703 338.6 108.403C326.7 110.703 314.4 108.103 304.6 101.503C299.8 104.103 294.6 106.003 289.2 107.003C284.6 107.903 279.9 108.203 275.3 107.903C268.6 117.303 258.5 124.003 246.8 126.203C243.9 126.603 241 126.903 238.1 126.903ZM238.2 61.6034C236.9 61.6034 235.6 61.7034 234.4 61.9034C229.2 62.9034 224.8 65.8034 221.8 70.2034C218.9 74.6034 217.8 79.8034 218.8 85.0034C219.8 90.2034 222.7 94.6034 227.1 97.6034C231.5 100.503 236.7 101.603 241.9 100.603C248.5 99.3034 253.9 94.9034 256.4 88.6034L260.7 78.0034L271.7 80.9034C275.8 82.0034 280 82.1034 284.2 81.3034C288.9 80.4034 293.4 78.3034 297 75.1034L306.7 66.9034L315.1 76.4034C319.8 81.7034 326.7 84.1034 333.6 82.7034C344.3 80.6034 351.3 70.3034 349.2 59.6034C347.1 48.9034 336.8 41.9034 326.1 44.0034C324.3 44.3034 322.6 45.0034 320.9 45.8034L309.6 51.6034L303.6 40.4034C297.8 29.5034 285.7 23.8034 273.5 26.1034C261.6 28.4034 252.5 38.0034 251 50.1034L249.5 61.4034L238.2 61.6034C238.2 61.6034 238.3 61.6034 238.2 61.6034Z" fill="white"/>
</svg>
